<svg width="459" height="446" viewBox="0 0 459 446" fill="none" xmlns="http://www.w3.org/2000/svg">
<mask id="path-1-inside-1_1_130" fill="white">
<rect x="100" y="68" width="298" height="283" rx="7"/>
</mask>
<rect x="100" y="68" width="298" height="283" rx="7" fill="#60CFFF" stroke="#2996E4" stroke-width="16" mask="url(#path-1-inside-1_1_130)"/>
<g filter="url(#filter0_i_1_130)">
<rect x="147.5" y="112.5" width="203" height="193" rx="3.5" stroke="#2996E4" stroke-width="7"/>
</g>
<path d="M191.445 173.345C189.844 173.338 188.476 172.916 187.341 172.078C186.206 171.24 185.338 170.021 184.737 168.42C184.136 166.819 183.835 164.891 183.835 162.634C183.835 160.385 184.136 158.463 184.737 156.869C185.345 155.275 186.216 154.059 187.351 153.221C188.493 152.384 189.857 151.965 191.445 151.965C193.032 151.965 194.393 152.387 195.528 153.231C196.663 154.069 197.531 155.285 198.132 156.879C198.74 158.467 199.044 160.385 199.044 162.634C199.044 164.897 198.744 166.829 198.142 168.43C197.541 170.024 196.673 171.244 195.538 172.088C194.403 172.926 193.039 173.345 191.445 173.345ZM191.445 170.639C192.85 170.639 193.947 169.953 194.738 168.582C195.535 167.211 195.933 165.228 195.933 162.634C195.933 160.912 195.751 159.456 195.386 158.267C195.028 157.072 194.512 156.166 193.836 155.552C193.167 154.93 192.37 154.62 191.445 154.62C190.046 154.62 188.949 155.309 188.152 156.687C187.355 158.065 186.953 160.047 186.946 162.634C186.946 164.364 187.125 165.826 187.483 167.022C187.848 168.211 188.364 169.112 189.033 169.727C189.702 170.335 190.506 170.639 191.445 170.639ZM209.863 173.345C208.262 173.338 206.894 172.916 205.76 172.078C204.625 171.24 203.757 170.021 203.155 168.42C202.554 166.819 202.254 164.891 202.254 162.634C202.254 160.385 202.554 158.463 203.155 156.869C203.763 155.275 204.635 154.059 205.77 153.221C206.911 152.384 208.276 151.965 209.863 151.965C211.451 151.965 212.812 152.387 213.947 153.231C215.082 154.069 215.95 155.285 216.551 156.879C217.159 158.467 217.463 160.385 217.463 162.634C217.463 164.897 217.162 166.829 216.561 168.43C215.96 170.024 215.092 171.244 213.957 172.088C212.822 172.926 211.457 173.345 209.863 173.345ZM209.863 170.639C211.268 170.639 212.366 169.953 213.156 168.582C213.953 167.211 214.352 165.228 214.352 162.634C214.352 160.912 214.17 159.456 213.805 158.267C213.447 157.072 212.93 156.166 212.255 155.552C211.586 154.93 210.789 154.62 209.863 154.62C208.465 154.62 207.367 155.309 206.57 156.687C205.773 158.065 205.371 160.047 205.364 162.634C205.364 164.364 205.543 165.826 205.901 167.022C206.266 168.211 206.783 169.112 207.452 169.727C208.12 170.335 208.924 170.639 209.863 170.639ZM228.282 173.345C226.681 173.338 225.313 172.916 224.178 172.078C223.043 171.24 222.175 170.021 221.574 168.42C220.973 166.819 220.672 164.891 220.672 162.634C220.672 160.385 220.973 158.463 221.574 156.869C222.182 155.275 223.053 154.059 224.188 153.221C225.33 152.384 226.694 151.965 228.282 151.965C229.869 151.965 231.23 152.387 232.365 153.231C233.5 154.069 234.368 155.285 234.969 156.879C235.577 158.467 235.881 160.385 235.881 162.634C235.881 164.897 235.581 166.829 234.979 168.43C234.378 170.024 233.51 171.244 232.375 172.088C231.24 172.926 229.876 173.345 228.282 173.345ZM228.282 170.639C229.687 170.639 230.784 169.953 231.575 168.582C232.372 167.211 232.77 165.228 232.77 162.634C232.77 160.912 232.588 159.456 232.223 158.267C231.865 157.072 231.349 156.166 230.673 155.552C230.004 154.93 229.207 154.62 228.282 154.62C226.883 154.62 225.786 155.309 224.989 156.687C224.192 158.065 223.79 160.047 223.783 162.634C223.783 164.364 223.962 165.826 224.32 167.022C224.685 168.211 225.201 169.112 225.87 169.727C226.539 170.335 227.343 170.639 228.282 170.639ZM246.7 173.345C245.099 173.338 243.731 172.916 242.597 172.078C241.462 171.24 240.594 170.021 239.992 168.42C239.391 166.819 239.091 164.891 239.091 162.634C239.091 160.385 239.391 158.463 239.992 156.869C240.6 155.275 241.472 154.059 242.607 153.221C243.748 152.384 245.113 151.965 246.7 151.965C248.288 151.965 249.649 152.387 250.784 153.231C251.918 154.069 252.787 155.285 253.388 156.879C253.996 158.467 254.3 160.385 254.3 162.634C254.3 164.897 253.999 166.829 253.398 168.43C252.797 170.024 251.929 171.244 250.794 172.088C249.659 172.926 248.294 173.345 246.7 173.345ZM246.7 170.639C248.105 170.639 249.203 169.953 249.993 168.582C250.79 167.211 251.189 165.228 251.189 162.634C251.189 160.912 251.007 159.456 250.642 158.267C250.284 157.072 249.767 156.166 249.091 155.552C248.423 154.93 247.626 154.62 246.7 154.62C245.302 154.62 244.204 155.309 243.407 156.687C242.61 158.065 242.208 160.047 242.201 162.634C242.201 164.364 242.38 165.826 242.738 167.022C243.103 168.211 243.62 169.112 244.289 169.727C244.957 170.335 245.761 170.639 246.7 170.639ZM265.767 152.248V173H262.626V155.39H262.504L257.54 158.632V155.633L262.717 152.248H265.767ZM279.254 152.248V173H276.113V155.39H275.991L271.026 158.632V155.633L276.204 152.248H279.254ZM292.74 152.248V173H289.599V155.39H289.477L284.512 158.632V155.633L289.69 152.248H292.74ZM305.578 173.345C303.977 173.338 302.609 172.916 301.474 172.078C300.34 171.24 299.472 170.021 298.87 168.42C298.269 166.819 297.969 164.891 297.969 162.634C297.969 160.385 298.269 158.463 298.87 156.869C299.478 155.275 300.35 154.059 301.485 153.221C302.626 152.384 303.991 151.965 305.578 151.965C307.166 151.965 308.527 152.387 309.661 153.231C310.796 154.069 311.664 155.285 312.266 156.879C312.874 158.467 313.177 160.385 313.177 162.634C313.177 164.897 312.877 166.829 312.276 168.43C311.674 170.024 310.806 171.244 309.672 172.088C308.537 172.926 307.172 173.345 305.578 173.345ZM305.578 170.639C306.983 170.639 308.081 169.953 308.871 168.582C309.668 167.211 310.067 165.228 310.067 162.634C310.067 160.912 309.884 159.456 309.52 158.267C309.162 157.072 308.645 156.166 307.969 155.552C307.301 154.93 306.504 154.62 305.578 154.62C304.18 154.62 303.082 155.309 302.285 156.687C301.488 158.065 301.086 160.047 301.079 162.634C301.079 164.364 301.258 165.826 301.616 167.022C301.981 168.211 302.498 169.112 303.167 169.727C303.835 170.335 304.639 170.639 305.578 170.639ZM188.979 220.345C187.378 220.338 186.01 219.916 184.875 219.078C183.74 218.24 182.872 217.021 182.271 215.42C181.67 213.819 181.369 211.891 181.369 209.634C181.369 207.385 181.67 205.463 182.271 203.869C182.879 202.275 183.75 201.059 184.885 200.221C186.027 199.384 187.391 198.965 188.979 198.965C190.566 198.965 191.927 199.387 193.062 200.231C194.197 201.069 195.065 202.285 195.666 203.879C196.274 205.467 196.578 207.385 196.578 209.634C196.578 211.897 196.278 213.829 195.676 215.43C195.075 217.024 194.207 218.244 193.072 219.088C191.937 219.926 190.573 220.345 188.979 220.345ZM188.979 217.639C190.384 217.639 191.481 216.953 192.272 215.582C193.069 214.211 193.467 212.228 193.467 209.634C193.467 207.912 193.285 206.456 192.92 205.267C192.562 204.072 192.046 203.166 191.37 202.552C190.701 201.93 189.904 201.62 188.979 201.62C187.58 201.62 186.483 202.309 185.686 203.687C184.889 205.065 184.487 207.047 184.48 209.634C184.48 211.364 184.659 212.826 185.017 214.022C185.382 215.211 185.898 216.112 186.567 216.727C187.236 217.335 188.04 217.639 188.979 217.639ZM207.397 220.345C205.796 220.338 204.428 219.916 203.294 219.078C202.159 218.24 201.291 217.021 200.689 215.42C200.088 213.819 199.788 211.891 199.788 209.634C199.788 207.385 200.088 205.463 200.689 203.869C201.297 202.275 202.169 201.059 203.304 200.221C204.445 199.384 205.81 198.965 207.397 198.965C208.985 198.965 210.346 199.387 211.481 200.231C212.615 201.069 213.484 202.285 214.085 203.879C214.693 205.467 214.997 207.385 214.997 209.634C214.997 211.897 214.696 213.829 214.095 215.43C213.494 217.024 212.626 218.244 211.491 219.088C210.356 219.926 208.991 220.345 207.397 220.345ZM207.397 217.639C208.802 217.639 209.9 216.953 210.69 215.582C211.487 214.211 211.886 212.228 211.886 209.634C211.886 207.912 211.704 206.456 211.339 205.267C210.981 204.072 210.464 203.166 209.788 202.552C209.12 201.93 208.323 201.62 207.397 201.62C205.999 201.62 204.901 202.309 204.104 203.687C203.307 205.065 202.905 207.047 202.898 209.634C202.898 211.364 203.077 212.826 203.435 214.022C203.8 215.211 204.317 216.112 204.986 216.727C205.654 217.335 206.458 217.639 207.397 217.639ZM225.816 220.345C224.215 220.338 222.847 219.916 221.712 219.078C220.577 218.24 219.709 217.021 219.108 215.42C218.507 213.819 218.206 211.891 218.206 209.634C218.206 207.385 218.507 205.463 219.108 203.869C219.716 202.275 220.587 201.059 221.722 200.221C222.864 199.384 224.228 198.965 225.816 198.965C227.403 198.965 228.764 199.387 229.899 200.231C231.034 201.069 231.902 202.285 232.503 203.879C233.111 205.467 233.415 207.385 233.415 209.634C233.415 211.897 233.115 213.829 232.513 215.43C231.912 217.024 231.044 218.244 229.909 219.088C228.774 219.926 227.41 220.345 225.816 220.345ZM225.816 217.639C227.221 217.639 228.318 216.953 229.109 215.582C229.906 214.211 230.304 212.228 230.304 209.634C230.304 207.912 230.122 206.456 229.757 205.267C229.399 204.072 228.882 203.166 228.207 202.552C227.538 201.93 226.741 201.62 225.816 201.62C224.417 201.62 223.32 202.309 222.523 203.687C221.726 205.065 221.324 207.047 221.317 209.634C221.317 211.364 221.496 212.826 221.854 214.022C222.219 215.211 222.735 216.112 223.404 216.727C224.073 217.335 224.877 217.639 225.816 217.639ZM244.234 220.345C242.633 220.338 241.265 219.916 240.13 219.078C238.996 218.24 238.128 217.021 237.526 215.42C236.925 213.819 236.625 211.891 236.625 209.634C236.625 207.385 236.925 205.463 237.526 203.869C238.134 202.275 239.006 201.059 240.141 200.221C241.282 199.384 242.647 198.965 244.234 198.965C245.822 198.965 247.183 199.387 248.318 200.231C249.452 201.069 250.32 202.285 250.922 203.879C251.53 205.467 251.834 207.385 251.834 209.634C251.834 211.897 251.533 213.829 250.932 215.43C250.331 217.024 249.463 218.244 248.328 219.088C247.193 219.926 245.828 220.345 244.234 220.345ZM244.234 217.639C245.639 217.639 246.737 216.953 247.527 215.582C248.324 214.211 248.723 212.228 248.723 209.634C248.723 207.912 248.541 206.456 248.176 205.267C247.818 204.072 247.301 203.166 246.625 202.552C245.957 201.93 245.16 201.62 244.234 201.62C242.836 201.62 241.738 202.309 240.941 203.687C240.144 205.065 239.742 207.047 239.735 209.634C239.735 211.364 239.914 212.826 240.272 214.022C240.637 215.211 241.154 216.112 241.823 216.727C242.491 217.335 243.295 217.639 244.234 217.639ZM262.653 220.345C261.052 220.338 259.684 219.916 258.549 219.078C257.414 218.24 256.546 217.021 255.945 215.42C255.344 213.819 255.043 211.891 255.043 209.634C255.043 207.385 255.344 205.463 255.945 203.869C256.553 202.275 257.424 201.059 258.559 200.221C259.701 199.384 261.065 198.965 262.653 198.965C264.24 198.965 265.601 199.387 266.736 200.231C267.871 201.069 268.739 202.285 269.34 203.879C269.948 205.467 270.252 207.385 270.252 209.634C270.252 211.897 269.952 213.829 269.35 215.43C268.749 217.024 267.881 218.244 266.746 219.088C265.611 219.926 264.247 220.345 262.653 220.345ZM262.653 217.639C264.058 217.639 265.155 216.953 265.946 215.582C266.743 214.211 267.141 212.228 267.141 209.634C267.141 207.912 266.959 206.456 266.594 205.267C266.236 204.072 265.719 203.166 265.044 202.552C264.375 201.93 263.578 201.62 262.653 201.62C261.254 201.62 260.157 202.309 259.36 203.687C258.562 205.065 258.161 207.047 258.154 209.634C258.154 211.364 258.333 212.826 258.691 214.022C259.056 215.211 259.572 216.112 260.241 216.727C260.91 217.335 261.714 217.639 262.653 217.639ZM281.72 199.248V220H278.579V202.39H278.457L273.492 205.632V202.633L278.67 199.248H281.72ZM294.558 220.345C292.957 220.338 291.589 219.916 290.454 219.078C289.319 218.24 288.451 217.021 287.85 215.42C287.249 213.819 286.948 211.891 286.948 209.634C286.948 207.385 287.249 205.463 287.85 203.869C288.458 202.275 289.329 201.059 290.464 200.221C291.606 199.384 292.97 198.965 294.558 198.965C296.145 198.965 297.506 199.387 298.641 200.231C299.776 201.069 300.644 202.285 301.245 203.879C301.853 205.467 302.157 207.385 302.157 209.634C302.157 211.897 301.856 213.829 301.255 215.43C300.654 217.024 299.786 218.244 298.651 219.088C297.516 219.926 296.152 220.345 294.558 220.345ZM294.558 217.639C295.963 217.639 297.06 216.953 297.851 215.582C298.648 214.211 299.046 212.228 299.046 209.634C299.046 207.912 298.864 206.456 298.499 205.267C298.141 204.072 297.624 203.166 296.949 202.552C296.28 201.93 295.483 201.62 294.558 201.62C293.159 201.62 292.062 202.309 291.265 203.687C290.467 205.065 290.066 207.047 290.059 209.634C290.059 211.364 290.238 212.826 290.596 214.022C290.961 215.211 291.477 216.112 292.146 216.727C292.815 217.335 293.619 217.639 294.558 217.639ZM313.625 199.248V220H310.483V202.39H310.362L305.397 205.632V202.633L310.575 199.248H313.625ZM186.513 267.345C184.912 267.338 183.544 266.916 182.409 266.078C181.274 265.24 180.406 264.021 179.805 262.42C179.204 260.819 178.903 258.891 178.903 256.634C178.903 254.385 179.204 252.463 179.805 250.869C180.413 249.275 181.284 248.059 182.419 247.221C183.561 246.384 184.925 245.965 186.513 245.965C188.1 245.965 189.461 246.387 190.596 247.231C191.731 248.069 192.599 249.285 193.2 250.879C193.808 252.467 194.112 254.385 194.112 256.634C194.112 258.897 193.812 260.829 193.21 262.43C192.609 264.024 191.741 265.244 190.606 266.088C189.471 266.926 188.107 267.345 186.513 267.345ZM186.513 264.639C187.918 264.639 189.015 263.953 189.806 262.582C190.603 261.211 191.001 259.228 191.001 256.634C191.001 254.912 190.819 253.456 190.454 252.267C190.096 251.072 189.579 250.166 188.904 249.552C188.235 248.93 187.438 248.62 186.513 248.62C185.114 248.62 184.017 249.309 183.22 250.687C182.423 252.065 182.021 254.047 182.014 256.634C182.014 258.364 182.193 259.826 182.551 261.022C182.916 262.211 183.432 263.112 184.101 263.727C184.77 264.335 185.574 264.639 186.513 264.639ZM204.931 267.345C203.33 267.338 201.962 266.916 200.828 266.078C199.693 265.24 198.825 264.021 198.223 262.42C197.622 260.819 197.322 258.891 197.322 256.634C197.322 254.385 197.622 252.463 198.223 250.869C198.831 249.275 199.703 248.059 200.838 247.221C201.979 246.384 203.344 245.965 204.931 245.965C206.519 245.965 207.88 246.387 209.015 247.231C210.149 248.069 211.017 249.285 211.619 250.879C212.227 252.467 212.531 254.385 212.531 256.634C212.531 258.897 212.23 260.829 211.629 262.43C211.028 264.024 210.16 265.244 209.025 266.088C207.89 266.926 206.525 267.345 204.931 267.345ZM204.931 264.639C206.336 264.639 207.434 263.953 208.224 262.582C209.021 261.211 209.42 259.228 209.42 256.634C209.42 254.912 209.238 253.456 208.873 252.267C208.515 251.072 207.998 250.166 207.322 249.552C206.654 248.93 205.857 248.62 204.931 248.62C203.533 248.62 202.435 249.309 201.638 250.687C200.841 252.065 200.439 254.047 200.432 256.634C200.432 258.364 200.611 259.826 200.969 261.022C201.334 262.211 201.851 263.112 202.52 263.727C203.188 264.335 203.992 264.639 204.931 264.639ZM223.35 267.345C221.749 267.338 220.381 266.916 219.246 266.078C218.111 265.24 217.243 264.021 216.642 262.42C216.041 260.819 215.74 258.891 215.74 256.634C215.74 254.385 216.041 252.463 216.642 250.869C217.25 249.275 218.121 248.059 219.256 247.221C220.398 246.384 221.762 245.965 223.35 245.965C224.937 245.965 226.298 246.387 227.433 247.231C228.568 248.069 229.436 249.285 230.037 250.879C230.645 252.467 230.949 254.385 230.949 256.634C230.949 258.897 230.649 260.829 230.047 262.43C229.446 264.024 228.578 265.244 227.443 266.088C226.308 266.926 224.944 267.345 223.35 267.345ZM223.35 264.639C224.755 264.639 225.852 263.953 226.643 262.582C227.44 261.211 227.838 259.228 227.838 256.634C227.838 254.912 227.656 253.456 227.291 252.267C226.933 251.072 226.416 250.166 225.741 249.552C225.072 248.93 224.275 248.62 223.35 248.62C221.951 248.62 220.854 249.309 220.057 250.687C219.26 252.065 218.858 254.047 218.851 256.634C218.851 258.364 219.03 259.826 219.388 261.022C219.753 262.211 220.269 263.112 220.938 263.727C221.607 264.335 222.411 264.639 223.35 264.639ZM241.768 267.345C240.167 267.338 238.799 266.916 237.664 266.078C236.53 265.24 235.662 264.021 235.06 262.42C234.459 260.819 234.159 258.891 234.159 256.634C234.159 254.385 234.459 252.463 235.06 250.869C235.668 249.275 236.54 248.059 237.675 247.221C238.816 246.384 240.181 245.965 241.768 245.965C243.356 245.965 244.717 246.387 245.852 247.231C246.986 248.069 247.854 249.285 248.456 250.879C249.064 252.467 249.368 254.385 249.368 256.634C249.368 258.897 249.067 260.829 248.466 262.43C247.865 264.024 246.997 265.244 245.862 266.088C244.727 266.926 243.362 267.345 241.768 267.345ZM241.768 264.639C243.173 264.639 244.271 263.953 245.061 262.582C245.858 261.211 246.257 259.228 246.257 256.634C246.257 254.912 246.075 253.456 245.71 252.267C245.352 251.072 244.835 250.166 244.159 249.552C243.491 248.93 242.694 248.62 241.768 248.62C240.37 248.62 239.272 249.309 238.475 250.687C237.678 252.065 237.276 254.047 237.269 256.634C237.269 258.364 237.448 259.826 237.806 261.022C238.171 262.211 238.688 263.112 239.357 263.727C240.025 264.335 240.829 264.639 241.768 264.639ZM260.187 267.345C258.586 267.338 257.218 266.916 256.083 266.078C254.948 265.24 254.08 264.021 253.479 262.42C252.878 260.819 252.577 258.891 252.577 256.634C252.577 254.385 252.878 252.463 253.479 250.869C254.087 249.275 254.958 248.059 256.093 247.221C257.235 246.384 258.599 245.965 260.187 245.965C261.774 245.965 263.135 246.387 264.27 247.231C265.405 248.069 266.273 249.285 266.874 250.879C267.482 252.467 267.786 254.385 267.786 256.634C267.786 258.897 267.485 260.829 266.884 262.43C266.283 264.024 265.415 265.244 264.28 266.088C263.145 266.926 261.781 267.345 260.187 267.345ZM260.187 264.639C261.592 264.639 262.689 263.953 263.48 262.582C264.277 261.211 264.675 259.228 264.675 256.634C264.675 254.912 264.493 253.456 264.128 252.267C263.77 251.072 263.253 250.166 262.578 249.552C261.909 248.93 261.112 248.62 260.187 248.62C258.788 248.62 257.691 249.309 256.894 250.687C256.096 252.065 255.695 254.047 255.688 256.634C255.688 258.364 255.867 259.826 256.225 261.022C256.59 262.211 257.106 263.112 257.775 263.727C258.444 264.335 259.248 264.639 260.187 264.639ZM279.254 246.248V267H276.113V249.39H275.991L271.026 252.632V249.633L276.204 246.248H279.254ZM292.092 267.345C290.491 267.338 289.123 266.916 287.988 266.078C286.853 265.24 285.985 264.021 285.384 262.42C284.783 260.819 284.482 258.891 284.482 256.634C284.482 254.385 284.783 252.463 285.384 250.869C285.992 249.275 286.863 248.059 287.998 247.221C289.14 246.384 290.504 245.965 292.092 245.965C293.679 245.965 295.04 246.387 296.175 247.231C297.31 248.069 298.178 249.285 298.779 250.879C299.387 252.467 299.691 254.385 299.691 256.634C299.691 258.897 299.39 260.829 298.789 262.43C298.188 264.024 297.32 265.244 296.185 266.088C295.05 266.926 293.686 267.345 292.092 267.345ZM292.092 264.639C293.497 264.639 294.594 263.953 295.385 262.582C296.182 261.211 296.58 259.228 296.58 256.634C296.58 254.912 296.398 253.456 296.033 252.267C295.675 251.072 295.158 250.166 294.483 249.552C293.814 248.93 293.017 248.62 292.092 248.62C290.693 248.62 289.596 249.309 288.799 250.687C288.001 252.065 287.599 254.047 287.593 256.634C287.593 258.364 287.772 259.826 288.13 261.022C288.495 262.211 289.011 263.112 289.68 263.727C290.349 264.335 291.153 264.639 292.092 264.639ZM310.51 267.345C308.909 267.338 307.541 266.916 306.406 266.078C305.272 265.24 304.404 264.021 303.802 262.42C303.201 260.819 302.901 258.891 302.901 256.634C302.901 254.385 303.201 252.463 303.802 250.869C304.41 249.275 305.282 248.059 306.417 247.221C307.558 246.384 308.923 245.965 310.51 245.965C312.098 245.965 313.459 246.387 314.594 247.231C315.728 248.069 316.596 249.285 317.198 250.879C317.806 252.467 318.11 254.385 318.11 256.634C318.11 258.897 317.809 260.829 317.208 262.43C316.607 264.024 315.739 265.244 314.604 266.088C313.469 266.926 312.104 267.345 310.51 267.345ZM310.51 264.639C311.915 264.639 313.013 263.953 313.803 262.582C314.6 261.211 314.999 259.228 314.999 256.634C314.999 254.912 314.816 253.456 314.452 252.267C314.094 251.072 313.577 250.166 312.901 249.552C312.233 248.93 311.436 248.62 310.51 248.62C309.112 248.62 308.014 249.309 307.217 250.687C306.42 252.065 306.018 254.047 306.011 256.634C306.011 258.364 306.19 259.826 306.548 261.022C306.913 262.211 307.43 263.112 308.099 263.727C308.767 264.335 309.571 264.639 310.51 264.639Z" fill="white"/>
<line x1="87" y1="302" x2="25" y2="302" stroke="#24BEC8" stroke-width="4"/>
<circle cx="13.5" cy="300.5" r="12" transform="rotate(90 13.5 300.5)" stroke="#24BEC8" stroke-width="3"/>
<line x1="39" y1="266" x2="90" y2="266" stroke="#24BEC8" stroke-width="4"/>
<line x1="39" y1="228" x2="90" y2="228" stroke="#24BEC8" stroke-width="4"/>
<line x1="39" y1="190" x2="90" y2="190" stroke="#24BEC8" stroke-width="4"/>
<line x1="39" y1="152" x2="90" y2="152" stroke="#24BEC8" stroke-width="4"/>
<line x1="39" y1="114" x2="90" y2="114" stroke="#24BEC8" stroke-width="4"/>
<line x1="153" y1="368" x2="153" y2="419" stroke="#2996E4" stroke-width="4"/>
<line x1="191" y1="368" x2="191" y2="419" stroke="#2996E4" stroke-width="4"/>
<circle cx="189.5" cy="432.5" r="12" stroke="#2996E4" stroke-width="3"/>
<line x1="229" y1="368" x2="229" y2="419" stroke="#2996E4" stroke-width="4"/>
<line x1="267" y1="368" x2="267" y2="419" stroke="#2996E4" stroke-width="4"/>
<line x1="305" y1="368" x2="305" y2="419" stroke="#2996E4" stroke-width="4"/>
<line x1="340" y1="368" x2="340" y2="419" stroke="#2996E4" stroke-width="4"/>
<line x1="459" y1="118" x2="408" y2="118" stroke="#24BEC8" stroke-width="4"/>
<line x1="459" y1="156" x2="408" y2="156" stroke="#24BEC8" stroke-width="4"/>
<line x1="459" y1="194" x2="408" y2="194" stroke="#24BEC8" stroke-width="4"/>
<line x1="459" y1="232" x2="408" y2="232" stroke="#24BEC8" stroke-width="4"/>
<line x1="459" y1="270" x2="408" y2="270" stroke="#24BEC8" stroke-width="4"/>
<line x1="459" y1="305" x2="408" y2="305" stroke="#24BEC8" stroke-width="4"/>
<line x1="153" y1="8.74228e-08" x2="153" y2="56" stroke="#2996E4" stroke-width="4"/>
<line x1="191" y1="8.74228e-08" x2="191" y2="56" stroke="#2996E4" stroke-width="4"/>
<line x1="229" y1="8.74228e-08" x2="229" y2="56" stroke="#2996E4" stroke-width="4"/>
<line x1="267" y1="8.74228e-08" x2="267" y2="56" stroke="#2996E4" stroke-width="4"/>
<line x1="305" y1="8.74228e-08" x2="305" y2="56" stroke="#2996E4" stroke-width="4"/>
<line x1="340" y1="8.74228e-08" x2="340" y2="56" stroke="#2996E4" stroke-width="4"/>
<defs>
<filter id="filter0_i_1_130" x="144" y="109" width="210" height="200" filterUnits="userSpaceOnUse" color-interpolation-filters="sRGB">
<feFlood flood-opacity="0" result="BackgroundImageFix"/>
<feBlend mode="normal" in="SourceGraphic" in2="BackgroundImageFix" result="shape"/>
<feColorMatrix in="SourceAlpha" type="matrix" values="0 0 0 0 0 0 0 0 0 0 0 0 0 0 0 0 0 0 127 0" result="hardAlpha"/>
<feOffset dx="-11" dy="64"/>
<feComposite in2="hardAlpha" operator="arithmetic" k2="-1" k3="1"/>
<feColorMatrix type="matrix" values="0 0 0 0 0 0 0 0 0 0 0 0 0 0 0 0 0 0 0.25 0"/>
<feBlend mode="normal" in2="shape" result="effect1_innerShadow_1_130"/>
</filter>
</defs>
</svg>
